{"title":"Viva Zapata!(1952)MP-4[DaScubaDude]","uid":12359298,"size":1386840033,"categoryP":"video","categoryS":"movies","magnet":"?xt=urn:btih:a71ed5a061c554d2a20459c23d230a68e489abb1&amp;dn=Viva+Zapata%21%281952%29MP-4%5BDaScubaDude%5D&amp;tr=udp%3A%2F%2Ftracker.openbittorrent.com%3A80&amp;tr=udp%3A%2F%2Fopen.demonii.com%3A1337&amp;tr=udp%3A%2F%2Ftracker.coppersurfer.tk%3A6969&amp;tr=udp%3A%2F%2Fexodus.desync.com%3A6969","seeders":0,"leechers":0,"uploader":"dascuba","files":1,"time":1441511891,"description":"Viva Zapata! (1952)\n113 min  |  Biography, Drama, History  |  22 August 1952 (West Germany)\n7.5 Your rating:   -/10   Ratings: 7.5/10 from 6,882 users   \nReviews: 45 user | 34 critic\nThe story of Mexican revolutionary Emiliano Zapata, who led a rebellion against the corrupt, oppressive dictatorship of president Porfirio Diaz in the early 20th century.\n\nDirector: Elia Kazan\nWriter: John Steinbeck\nStars: Marlon Brando, Jean Peters, Anthony Quinn \n\nGeneral\nComplete name                            : C:Viva Zapata!VIVA_ZAPATA_Title1.mp4\nFormat                                   : MPEG-4\nFormat profile                           : Base Media\nCodec ID                                 : isom\nFile size                                : 1.29 GiB\nDuration                                 : 1h 53mn\nOverall bit rate mode                    : Constant\nOverall bit rate                         : 1 634 Kbps\nMovie name                               : VIVA_ZAPATA\nGenre                                    : Drama\nWriting application                      : Lavf54.6.100\n\nVideo\nID                                       : 1\nFormat                                   : MPEG-4 Visual\nFormat settings, BVOP                    : No\nFormat settings, QPel                    : No\nFormat settings, GMC                     : No warppoints\nFormat settings, Matrix                  : Default (H.263)\nCodec ID                                 : 20\nDuration                                 : 1h 53mn\nBit rate mode                            : Constant\nBit rate                                 : 1 500 Kbps\nWidth                                    : 720 pixels\nHeight                                   : 540 pixels\nDisplay aspect ratio                     : 4:3\nFrame rate mode                          : Constant\nFrame rate                               : 29.970 fps\nColor space                              : YUV\nChroma subsampling                       : 4:2:0\nBit depth                                : 8 bits\nScan type                                : Progressive\nCompression mode                         : Lossy\nBits/(Pixel*Frame)                       : 0.129\nStream size                              : 1.19 GiB (92%)\nWriting library                          : Lavc54.23.100\n\nAudio\nID                                       : 2\nFormat                                   : MPEG Audio\nFormat version                           : Version 1\nFormat profile                           : Layer 3\nCodec ID                                 : 6B\nDuration                                 : 1h 53mn\nBit rate mode                            : Constant\nBit rate                                 : 128 Kbps\nChannel(s)                               : 2 channels\nSampling rate                            : 44.1 KHz\nCompression mode                         : Lossy\nStream size                              : 104 MiB (8%)\nWriting library                          : LAME3.99.5","torrent":{"xt":"urn:btih:a71ed5a061c554d2a20459c23d230a68e489abb1","amp;dn":"Viva+Zapata%21%281952%29MP-4%5BDaScubaDude%5D","amp;tr":["udp%3A%2F%2Ftracker.openbittorrent.com%3A80","udp%3A%2F%2Fopen.demonii.com%3A1337","udp%3A%2F%2Ftracker.coppersurfer.tk%3A6969","udp%3A%2F%2Fexodus.desync.com%3A6969"],"infoHash":"a71ed5a061c554d2a20459c23d230a68e489abb1","infoHashBuffer":{"type":"Buffer","data":[167,30,213,160,97,197,84,210,162,4,89,194,61,35,10,104,228,137,171,177]},"announce":[],"urlList":[]}}